<?xml version="1.0" standalone="no"?>
<!DOCTYPE svg PUBLIC "-//W3C//DTD SVG 20010904//EN"
 "http://www.w3.org/TR/2001/REC-SVG-20010904/DTD/svg10.dtd">
<svg version="1.0" xmlns="http://www.w3.org/2000/svg"
 width="400.000000pt" height="382.000000pt" viewBox="0 0 400.000000 382.000000"
 preserveAspectRatio="xMidYMid meet">
<g transform="translate(0.000000,382.000000) scale(0.100000,-0.100000)"
fill="#CFCFCF" stroke="none">
<path d="M1483 3649 c-51 -10 -83 -37 -105 -86 -19 -42 -19 -52 -8 -122 15
-93 53 -217 91 -293 16 -32 39 -97 50 -145 12 -49 37 -140 56 -203 19 -63 57
-204 84 -313 39 -153 47 -202 39 -217 -6 -11 -14 -20 -18 -20 -4 1 -53 82
-110 180 -57 99 -126 207 -153 241 -51 64 -60 69 -33 17 9 -17 22 -52 30 -79
8 -27 41 -105 74 -173 33 -68 62 -136 65 -149 8 -31 -33 -110 -53 -102 -8 3
-26 -3 -40 -13 -43 -30 -62 -34 -68 -14 -3 9 -10 25 -15 34 -5 10 -11 38 -14
64 -3 25 -14 62 -25 81 -12 23 -17 46 -13 67 3 22 -2 45 -16 72 -12 21 -21 45
-21 52 0 25 -63 72 -96 72 -8 0 -14 5 -14 10 0 6 -10 10 -22 10 -12 0 -18 3
-15 6 12 13 -33 63 -50 57 -12 -5 -15 -2 -10 9 3 9 -2 26 -11 39 -25 36 -41
87 -48 159 -7 63 -24 97 -44 85 -21 -13 -84 35 -122 94 -26 41 -41 85 -17 51
8 -11 9 -9 4 10 -8 29 -32 50 -57 50 -11 0 -18 7 -18 18 0 10 -5 23 -11 29
-26 26 -9 131 25 156 34 25 33 34 -6 40 -43 6 -149 -46 -172 -84 -9 -15 -16
-47 -16 -71 0 -37 12 -63 88 -184 48 -77 101 -157 119 -179 18 -21 54 -79 80
-129 26 -50 77 -131 112 -181 84 -119 104 -151 125 -205 20 -50 140 -264 166
-295 25 -29 31 -52 20 -79 -15 -41 -45 -51 -86 -27 l-34 20 6 -27 c3 -15 8
-34 10 -42 6 -19 -52 -133 -75 -147 -14 -9 -29 -9 -55 -2 -20 5 -39 10 -43 11
-30 2 -93 82 -114 144 -8 21 -20 43 -27 47 -9 6 -11 21 -6 53 7 47 -5 58 -28
25 -7 -10 -30 -24 -51 -29 -52 -15 -79 -1 -147 73 -30 33 -72 77 -93 98 -25
25 -37 45 -35 60 3 19 -2 23 -32 25 -40 4 -60 17 -60 40 0 15 -76 92 -91 92
-12 0 -31 64 -20 68 6 2 -3 24 -19 50 -15 26 -31 67 -34 91 -3 24 -8 46 -11
49 -2 3 5 17 16 33 l20 28 -25 7 c-33 8 -104 -31 -127 -71 -37 -64 -16 -145
62 -238 24 -28 93 -99 154 -157 134 -128 191 -185 275 -275 36 -39 87 -88 113
-109 27 -21 64 -60 83 -86 19 -26 74 -82 124 -124 66 -56 90 -83 90 -100 0
-31 -23 -49 -51 -41 -20 7 -21 5 -14 -21 18 -72 17 -111 -4 -157 -12 -25 -21
-53 -21 -61 0 -24 -59 -104 -82 -112 -16 -5 -27 0 -42 18 -22 26 -59 88 -60
100 -2 20 -53 72 -82 84 -20 8 -34 22 -34 32 -1 14 -4 14 -19 -5 -27 -32 -70
-29 -133 8 -29 17 -54 35 -56 40 -2 5 -9 9 -16 9 -17 0 -66 59 -66 79 0 10 -6
25 -13 35 -13 17 -14 17 -31 1 -29 -29 -88 -3 -132 57 -20 26 -41 48 -48 48
-6 0 -18 10 -26 21 -8 12 -24 30 -35 41 -29 28 -38 135 -13 160 17 17 17 18
-17 18 l-35 0 0 -145 c0 -99 3 -145 11 -145 6 0 8 7 5 16 -7 19 -34 35 476
-278 l397 -243 486 -545 c453 -508 485 -547 482 -578 l-3 -32 332 0 c351 0
355 0 427 50 36 24 49 50 26 50 -8 0 -7 6 2 17 13 14 11 16 -12 11 -28 -5 -34
11 -11 34 7 7 12 19 12 28 0 24 35 52 127 100 46 24 81 45 80 47 -3 2 -213
-73 -302 -109 -107 -44 -134 -52 -141 -45 -13 13 28 46 82 67 69 25 136 68
129 81 -4 5 -12 6 -18 2 -8 -4 -7 -1 1 9 7 9 24 19 39 23 56 14 12 13 -71 -1
-48 -9 -90 -13 -93 -11 -2 3 9 8 26 12 20 4 37 18 51 42 11 20 20 36 18 37 -2
1 -11 8 -20 15 -15 11 -21 11 -33 1 -9 -8 -15 -8 -15 -2 0 17 40 26 110 25 36
-1 58 0 48 3 -9 3 -19 11 -21 19 -7 16 3 55 13 55 22 0 17 33 -8 55 -25 22
-26 25 -11 40 8 8 35 18 60 21 48 6 103 44 63 44 -13 0 -25 10 -33 26 -10 23
-9 30 9 49 14 15 18 25 11 30 -6 3 -11 13 -11 22 0 14 3 14 25 -1 22 -14 25
-15 25 -1 0 22 -4 30 -13 27 -9 -3 2 48 14 63 4 6 -1 22 -11 35 -21 26 -25 46
-12 52 4 2 15 17 24 34 17 30 17 32 -2 49 -20 18 -21 76 0 83 5 2 8 8 5 13 -3
4 3 14 15 21 11 7 20 22 20 32 0 16 3 17 12 8 19 -19 38 -14 38 11 0 12 9 29
20 37 11 8 20 20 20 27 0 7 5 13 10 13 6 0 10 -4 10 -10 0 -5 6 -10 13 -10 14
0 18 141 4 151 -4 3 9 5 30 5 21 -1 43 -7 49 -14 8 -11 12 -11 23 2 17 20 6
105 -15 113 -20 7 -17 33 4 33 11 0 18 8 19 21 1 11 13 29 27 40 14 11 26 25
26 30 0 20 37 50 54 43 14 -5 16 -2 11 19 -6 21 3 38 49 96 31 38 60 73 66 76
5 3 10 14 10 24 0 10 7 24 16 32 9 7 23 30 31 51 13 34 19 38 49 38 19 0 34 4
34 9 0 5 -9 7 -20 4 -23 -6 -23 -6 -8 38 6 18 25 45 42 59 17 14 41 35 54 47
12 13 31 27 42 33 11 6 32 29 46 51 14 23 39 46 58 54 19 8 36 21 39 29 3 8
22 19 42 26 24 8 35 17 31 26 -3 8 -1 14 5 14 6 0 8 4 4 9 -3 6 -13 10 -23 9
-9 0 -42 5 -74 10 -62 12 -101 4 -218 -41 -158 -61 -238 -136 -356 -332 -43
-71 -88 -143 -101 -158 -13 -16 -23 -33 -23 -38 0 -17 -80 -128 -103 -143 -44
-29 -131 -27 -237 6 -8 3 -12 3 -7 1 14 -8 7 -23 -10 -23 -21 0 -47 -14 -101
-53 -40 -28 -76 -29 -65 -1 4 12 0 14 -22 8 -23 -6 -27 -4 -22 9 4 10 0 17
-10 19 -11 2 -17 17 -20 45 -4 39 -2 42 24 46 15 2 -27 4 -95 3 -97 -1 -124 2
-132 13 -6 10 -3 19 8 28 15 13 14 13 -8 7 -14 -3 -29 -10 -35 -14 -5 -4 -31
-10 -56 -13 -52 -7 -131 -45 -122 -60 3 -5 -1 -13 -8 -18 -22 -14 -27 -11 -25
16 2 13 0 22 -5 20 -9 -6 -39 22 -39 37 0 6 3 8 7 5 9 -10 43 23 43 43 0 9 5
21 11 27 8 8 5 14 -11 23 -15 8 -19 15 -12 22 7 7 5 19 -4 36 -19 37 -17 52 6
52 18 0 19 3 9 22 -9 17 -9 24 2 32 8 6 13 22 11 35 -2 13 1 28 7 34 6 6 11
21 11 34 0 13 4 23 10 23 13 0 1 30 -22 54 -10 11 -18 28 -18 38 0 10 -7 21
-16 25 -10 3 -14 15 -12 32 1 17 -6 36 -20 52 -19 20 -22 32 -19 74 3 27 0 77
-5 110 -6 33 -10 70 -10 83 0 13 -7 22 -15 22 -9 0 -13 6 -9 15 3 8 1 15 -4
15 -6 0 -10 5 -10 10 0 6 -8 29 -18 53 -32 72 -46 121 -43 153 1 19 -4 34 -12
37 -10 4 -13 22 -13 61 1 49 -1 56 -21 61 -17 4 -23 13 -24 33 -1 45 -24 141
-37 154 -6 6 -12 22 -12 34 0 28 -19 42 -31 23 -8 -13 -13 -5 -9 16 1 6 -4 4
-11 -2 -19 -19 -26 -16 -33 12 -8 32 2 53 16 34 6 -9 7 12 3 57 -6 68 -6 72
19 91 20 16 23 23 13 31 -17 14 -66 19 -104 11z m1189 -1907 c-12 -8 -7 -42 7
-42 4 0 17 -9 29 -20 23 -22 23 -23 -21 -71 -10 -11 -15 -24 -12 -29 4 -6 -1
-7 -11 -3 -12 4 -15 3 -10 -5 10 -17 2 -15 -44 9 -46 24 -46 26 -23 74 11 22
24 35 37 36 21 1 21 1 1 7 -18 6 -21 15 -16 45 0 4 18 7 39 7 23 0 32 -3 24
-8z m-1063 -41 c11 -15 18 -30 16 -33 -2 -2 -7 -33 -10 -68 -4 -44 -12 -70
-24 -80 -9 -8 -25 -28 -35 -44 -15 -23 -16 -33 -7 -53 21 -45 55 -7 79 87 7
29 13 35 32 32 31 -3 59 -29 76 -67 7 -17 23 -42 36 -56 28 -30 34 -79 18
-153 -9 -42 -8 -59 5 -88 8 -21 12 -43 9 -51 -3 -8 6 -27 19 -43 30 -36 29
-69 -2 -113 -20 -28 -22 -33 -7 -28 10 4 15 3 11 -3 -3 -6 1 -13 10 -16 9 -4
14 -13 11 -21 -4 -10 0 -13 17 -11 30 4 100 -66 92 -92 -5 -15 -1 -19 19 -17
14 1 25 -2 26 -8 1 -5 9 -13 19 -17 13 -4 17 -14 13 -36 -2 -18 2 -40 12 -54
24 -34 20 -48 -29 -108 -25 -30 -65 -94 -90 -141 -42 -82 -75 -126 -75 -100 0
6 -7 11 -16 11 -13 0 -15 8 -11 43 3 23 9 56 13 72 6 27 6 29 -9 17 -9 -8 -26
-34 -37 -58 -12 -24 -24 -44 -27 -44 -3 0 -3 27 0 60 5 59 5 60 -19 54 -22 -6
-24 -3 -24 29 0 45 -8 67 -26 67 -8 0 -14 7 -14 15 0 23 -48 65 -66 58 -20 -7
-34 13 -34 49 0 29 -40 62 -48 39 -4 -13 -32 -15 -32 -2 0 5 -10 11 -22 13
-17 2 -23 10 -23 28 0 19 -6 26 -24 28 -32 5 -57 37 -70 88 -6 23 -17 47 -26
54 -8 6 -17 28 -21 49 -7 47 -35 101 -51 101 -7 0 -13 10 -13 22 0 19 -2 20
-17 7 -31 -25 -65 -41 -71 -34 -4 4 -7 38 -7 76 0 38 -4 69 -8 69 -4 0 -12 10
-16 23 -6 16 -4 27 8 41 17 19 16 22 -1 44 -6 6 -6 12 -1 12 5 0 15 -6 22 -12
10 -11 11 -8 6 14 -4 14 -1 36 5 48 9 17 8 26 -4 46 -15 22 -15 25 4 41 11 10
20 23 20 30 0 7 5 13 10 13 6 0 10 7 10 15 0 9 -6 12 -15 9 -9 -4 -15 0 -15 9
0 8 -3 17 -7 20 -5 2 -1 2 7 -1 49 -14 50 -14 44 1 -8 23 18 27 104 18 6 0 12
-6 12 -13 0 -18 62 -78 80 -78 11 0 19 16 28 58 7 32 21 68 32 80 11 12 20 25
20 30 0 15 38 44 49 38 5 -4 12 -2 16 4 10 17 23 12 44 -19z m521 -1115 c0 -8
-5 -27 -11 -43 -6 -15 -12 -42 -14 -59 -1 -17 -10 -42 -19 -56 -12 -18 -15
-43 -14 -92 3 -66 3 -66 21 -45 12 16 14 25 7 34 -7 9 -8 15 -1 19 5 4 20 27
32 51 30 60 62 89 88 80 12 -3 21 -13 21 -20 0 -8 7 -18 15 -23 23 -12 8 -40
-24 -47 -32 -7 -95 -93 -89 -122 3 -14 9 -11 36 15 33 33 38 35 82 36 16 1 25
7 25 18 0 9 4 20 8 24 4 4 7 0 7 -9 0 -13 9 -15 53 -11 45 4 49 3 27 -7 -14
-7 -70 -33 -125 -60 -120 -57 -136 -62 -170 -53 -18 4 -24 11 -20 21 3 11 1
13 -10 9 -11 -4 -15 2 -15 24 0 24 -4 30 -21 30 -14 0 -19 5 -16 14 3 7 8 35
12 62 l6 49 -20 -39 c-30 -56 -35 -57 -28 -5 7 52 56 151 95 191 29 30 62 37
62 14z"/>
</g>
</svg>
